<svg xmlns="http://www.w3.org/2000/svg" xmlns:xlink="http://www.w3.org/1999/xlink" viewBox="0,0,256,256" width="104px" height="104px" fill-rule="nonzero"><defs><clipPath id="clip-1"><path d="M0,256v-256h256v256zM152.16095,124.59172c-9.1645,0 -17.49586,3.33254 -24.16095,7.49822c-6.66509,-4.16568 -14.99645,-7.49822 -24.16095,-7.49822c-26.66036,0 -46.65562,19.16213 -46.65562,45.82249c0,26.66036 19.99527,43.32308 36.65799,55.82012c6.66509,4.99882 13.33018,10.83077 17.49586,15.82959c4.99882,4.99882 10.83077,7.49822 16.66272,7.49822c6.66509,0 12.49704,-2.49941 16.66272,-6.66509c4.16568,-4.99882 10.83077,-9.99763 17.49586,-15.82959c16.66272,-13.33018 36.65799,-29.15976 36.65799,-55.82012c0,-27.49349 -19.99527,-46.65562 -46.65562,-46.65562z" id="overlayBgMask" fill="none"></path></clipPath></defs><g transform=""><g fill="#ffffff" fill-rule="nonzero" stroke="none" stroke-width="1" stroke-linecap="butt" stroke-linejoin="miter" stroke-miterlimit="10" stroke-dasharray="" stroke-dashoffset="0" font-family="none" font-weight="none" font-size="none" text-anchor="none" style="mix-blend-mode: normal"><path d="M0,256v-256h256v256z" id="bgRectangle"></path></g><g clip-path="url(#clip-1)" fill="none" fill-rule="nonzero" stroke="none" stroke-width="1" stroke-linecap="butt" stroke-linejoin="miter" stroke-miterlimit="10" stroke-dasharray="" stroke-dashoffset="0" font-family="none" font-weight="none" font-size="none" text-anchor="none" style="mix-blend-mode: normal"><g transform="scale(9.84615,9.84615)" fill="#000000"><path d="M20,2.03125c-0.55078,0 -1,0.44922 -1,1v4.78125l-5.28125,-5.28125c-0.39062,-0.39062 -1.04687,-0.39062 -1.4375,0l-11.71875,11.75c-0.39062,0.39063 -0.39062,1.01563 0,1.40625c0.39063,0.39063 1.01563,0.39063 1.40625,0l11.03125,-11.03125l11.0625,11.0625c0.19531,0.19531 0.46094,0.3125 0.71875,0.3125c0.25781,0 0.49219,-0.11719 0.6875,-0.3125c0.39063,-0.39062 0.39063,-1.01562 0,-1.40625l-3.46875,-3.46875v-7.8125c0,-0.55078 -0.44922,-1 -1,-1zM13,6.5l-11,11v5.5c0,1.65625 1.34375,3 3,3h16c1.65625,0 3,-1.34375 3,-3v-5.5zM11,16h4c0.55078,0 1,0.44922 1,1v6c0,0.55078 -0.44922,1 -1,1h-4c-0.55078,0 -1,-0.44922 -1,-1v-6c0,-0.55078 0.44922,-1 1,-1z"></path></g></g><g fill="#000000" fill-rule="nonzero" stroke="none" stroke-width="1" stroke-linecap="butt" stroke-linejoin="miter" stroke-miterlimit="10" stroke-dasharray="" stroke-dashoffset="0" font-family="none" font-weight="none" font-size="none" text-anchor="none" style="mix-blend-mode: normal"><g transform="translate(73.84615,141.25444) scale(8.33136,8.33136)" id="overlay"><path d="M9.4,8.7c-0.9,0.6 -1.8,1.3 -2.4,2.1c-0.1,0.1 -0.3,0.2 -0.5,0.2v0c-0.2,0 -0.3,-0.1 -0.4,-0.2c-0.7,-0.8 -1.6,-1.5 -2.5,-2.1c-1.7,-1.5 -3.6,-2.9 -3.6,-5.2c0,-2.1 1.5,-3.5 3.6,-3.5c1.2,0 2.3,0.9 2.9,1.4c0.6,-0.5 1.6,-1.4 2.9,-1.4c2.1,0 3.6,1.4 3.6,3.5c0,2.3 -1.9,3.7 -3.6,5.2z"></path></g></g></g></svg>